<!-- Generator: Adobe Illustrator 25.2.1, SVG Export Plug-In  -->
<svg version="1.1" xmlns="http://www.w3.org/2000/svg" xmlns:xlink="http://www.w3.org/1999/xlink" x="0px" y="0px" width="483px"
	 height="50.9px" viewBox="0 0 483 50.9" style="overflow:visible;enable-background:new 0 0 483 50.9;" xml:space="preserve">
<style type="text/css">
	.st0{fill:#F6BC46;stroke:#FFFFFF;stroke-width:2;stroke-miterlimit:10;}
	.st1{fill:#68C9CF;stroke:#FFFFFF;stroke-width:2;stroke-miterlimit:10;}
	.st2{fill:#EF8F9B;stroke:#FFFFFF;stroke-width:2;stroke-miterlimit:10;}
	.st3{opacity:0.8;}
</style>
<defs>
</defs>
<path class="st0" d="M273.3,49.9h-63.7c-1.4,0-2.5-1.1-2.5-2.5V3.5c0-1.4,1.1-2.5,2.5-2.5h63.7c1.4,0,2.5,1.1,2.5,2.5v43.9
	C275.8,48.8,274.7,49.9,273.3,49.9z"/>
<path class="st0" d="M342,49.9h-63.7c-1.4,0-2.5-1.1-2.5-2.5V3.5c0-1.4,1.1-2.5,2.5-2.5H342c1.4,0,2.5,1.1,2.5,2.5v43.9
	C344.5,48.8,343.4,49.9,342,49.9z"/>
<path class="st1" d="M410.7,49.9h-63.7c-1.4,0-2.5-1.1-2.5-2.5V3.5c0-1.4,1.1-2.5,2.5-2.5h63.7c1.4,0,2.5,1.1,2.5,2.5v43.9
	C413.3,48.8,412.1,49.9,410.7,49.9z"/>
<path class="st2" d="M479.4,49.9h-63.7c-1.4,0-2.5-1.1-2.5-2.5V3.5c0-1.4,1.1-2.5,2.5-2.5h63.7c1.4,0,2.5,1.1,2.5,2.5v43.9
	C482,48.8,480.8,49.9,479.4,49.9z"/>
<path class="st0" d="M67.2,49.9H3.5c-1.4,0-2.5-1.1-2.5-2.5V3.5C1,2.1,2.1,1,3.5,1h63.7c1.4,0,2.5,1.1,2.5,2.5v43.9
	C69.7,48.8,68.6,49.9,67.2,49.9z"/>
<path class="st1" d="M135.9,49.9H72.2c-1.4,0-2.5-1.1-2.5-2.5V3.5c0-1.4,1.1-2.5,2.5-2.5h63.7c1.4,0,2.5,1.1,2.5,2.5v43.9
	C138.4,48.8,137.3,49.9,135.9,49.9z"/>
<path class="st1" d="M204.6,49.9h-63.7c-1.4,0-2.5-1.1-2.5-2.5V3.5c0-1.4,1.1-2.5,2.5-2.5h63.7c1.4,0,2.5,1.1,2.5,2.5v43.9
	C207.1,48.8,206,49.9,204.6,49.9z"/>
<g class="st3">
	<path d="M235.2,33.8H232V16.5h3.2V33.8z"/>
	<path d="M253.9,16.5l-7,17.3H244l-7-17.3h2.6c0.3,0,0.5,0.1,0.7,0.2s0.3,0.3,0.4,0.5l4.1,10.6c0.1,0.3,0.3,0.7,0.4,1.1
		s0.2,0.8,0.4,1.3c0.1-0.4,0.2-0.9,0.3-1.3c0.1-0.4,0.2-0.8,0.4-1.1l4.1-10.6c0.1-0.2,0.2-0.4,0.4-0.5s0.4-0.2,0.7-0.2H253.9z"/>
</g>
<g class="st3">
	<path d="M319.1,16.5l-7,17.3h-2.9l-7-17.3h2.6c0.3,0,0.5,0.1,0.7,0.2s0.3,0.3,0.4,0.5l4.1,10.6c0.1,0.3,0.3,0.7,0.4,1.1
		s0.2,0.8,0.4,1.3c0.1-0.4,0.2-0.9,0.3-1.3s0.2-0.8,0.4-1.1l4.1-10.6c0.1-0.2,0.2-0.4,0.4-0.5s0.4-0.2,0.7-0.2H319.1z"/>
</g>
<g class="st3">
	<path d="M382.1,21.5l-4.9,12.3h-2.7l-4.9-12.3h2.4c0.2,0,0.4,0.1,0.6,0.2c0.1,0.1,0.2,0.2,0.3,0.4l2.4,6.6c0.1,0.4,0.2,0.8,0.3,1.1
		c0.1,0.4,0.2,0.7,0.3,1.1c0.1-0.4,0.2-0.7,0.3-1.1c0.1-0.4,0.2-0.7,0.3-1.1l2.4-6.6c0.1-0.2,0.2-0.3,0.3-0.4
		c0.1-0.1,0.3-0.2,0.5-0.2H382.1z"/>
	<path d="M387.1,17.9c0,0.3-0.1,0.5-0.2,0.7c-0.1,0.2-0.2,0.4-0.4,0.6c-0.2,0.2-0.4,0.3-0.6,0.4c-0.2,0.1-0.5,0.1-0.7,0.1
		c-0.3,0-0.5,0-0.7-0.1c-0.2-0.1-0.4-0.2-0.6-0.4c-0.2-0.2-0.3-0.4-0.4-0.6c-0.1-0.2-0.1-0.5-0.1-0.7c0-0.3,0-0.5,0.1-0.7
		c0.1-0.2,0.2-0.4,0.4-0.6c0.2-0.2,0.4-0.3,0.6-0.4c0.2-0.1,0.5-0.1,0.7-0.1c0.3,0,0.5,0,0.7,0.1c0.2,0.1,0.4,0.2,0.6,0.4
		c0.2,0.2,0.3,0.4,0.4,0.6C387.1,17.4,387.1,17.7,387.1,17.9z M386.7,21.5v12.3h-3V21.5H386.7z"/>
</g>
<g class="st3">
	<path d="M447.2,21.5l-4.9,12.3h-2.7l-4.9-12.3h2.4c0.2,0,0.4,0.1,0.6,0.2c0.1,0.1,0.2,0.2,0.3,0.4l2.4,6.6c0.1,0.4,0.2,0.8,0.3,1.1
		c0.1,0.4,0.2,0.7,0.3,1.1c0.1-0.4,0.2-0.7,0.3-1.1c0.1-0.4,0.2-0.7,0.3-1.1l2.4-6.6c0.1-0.2,0.2-0.3,0.3-0.4
		c0.1-0.1,0.3-0.2,0.5-0.2H447.2z"/>
	<path d="M452.2,17.9c0,0.3-0.1,0.5-0.2,0.7c-0.1,0.2-0.2,0.4-0.4,0.6c-0.2,0.2-0.4,0.3-0.6,0.4s-0.5,0.1-0.7,0.1
		c-0.3,0-0.5,0-0.7-0.1s-0.4-0.2-0.6-0.4c-0.2-0.2-0.3-0.4-0.4-0.6c-0.1-0.2-0.2-0.5-0.2-0.7c0-0.3,0-0.5,0.2-0.7
		c0.1-0.2,0.2-0.4,0.4-0.6c0.2-0.2,0.4-0.3,0.6-0.4s0.5-0.1,0.7-0.1c0.3,0,0.5,0,0.7,0.1s0.4,0.2,0.6,0.4c0.2,0.2,0.3,0.4,0.4,0.6
		C452.2,17.4,452.2,17.7,452.2,17.9z M451.8,21.5v12.3h-3V21.5H451.8z"/>
	<path d="M458.3,17.9c0,0.3-0.1,0.5-0.2,0.7c-0.1,0.2-0.2,0.4-0.4,0.6c-0.2,0.2-0.4,0.3-0.6,0.4c-0.2,0.1-0.5,0.1-0.7,0.1
		c-0.3,0-0.5,0-0.7-0.1c-0.2-0.1-0.4-0.2-0.6-0.4c-0.2-0.2-0.3-0.4-0.4-0.6c-0.1-0.2-0.2-0.5-0.2-0.7c0-0.3,0-0.5,0.2-0.7
		c0.1-0.2,0.2-0.4,0.4-0.6c0.2-0.2,0.4-0.3,0.6-0.4c0.2-0.1,0.5-0.1,0.7-0.1c0.3,0,0.5,0,0.7,0.1c0.2,0.1,0.4,0.2,0.6,0.4
		c0.2,0.2,0.3,0.4,0.4,0.6C458.3,17.4,458.3,17.7,458.3,17.9z M457.9,21.5v12.3h-3V21.5H457.9z"/>
	<path d="M460.3,20.4c0-0.6,0.1-1.1,0.3-1.6c0.2-0.5,0.5-0.9,0.9-1.3c0.4-0.4,0.8-0.7,1.3-0.9c0.5-0.2,1.1-0.3,1.6-0.3
		c0.6,0,1.1,0.1,1.6,0.3c0.5,0.2,0.9,0.5,1.3,0.9c0.4,0.4,0.7,0.8,0.9,1.3c0.2,0.5,0.3,1,0.3,1.6c0,0.6-0.1,1.1-0.3,1.6
		c-0.2,0.5-0.5,0.9-0.9,1.3c-0.4,0.4-0.8,0.7-1.3,0.9c-0.5,0.2-1.1,0.3-1.6,0.3c-0.6,0-1.1-0.1-1.6-0.3c-0.5-0.2-0.9-0.5-1.3-0.9
		c-0.4-0.4-0.7-0.8-0.9-1.3C460.4,21.4,460.3,20.9,460.3,20.4z M462.4,20.4c0,0.3,0.1,0.6,0.2,0.8c0.1,0.3,0.2,0.5,0.4,0.7
		c0.2,0.2,0.4,0.3,0.7,0.4s0.5,0.2,0.8,0.2c0.3,0,0.6-0.1,0.8-0.2c0.3-0.1,0.5-0.3,0.7-0.4c0.2-0.2,0.3-0.4,0.4-0.7s0.2-0.5,0.2-0.8
		c0-0.3-0.1-0.6-0.2-0.8s-0.3-0.5-0.4-0.7c-0.2-0.2-0.4-0.3-0.7-0.5c-0.3-0.1-0.5-0.2-0.8-0.2c-0.3,0-0.6,0.1-0.8,0.2
		c-0.3,0.1-0.5,0.3-0.7,0.5c-0.2,0.2-0.3,0.4-0.4,0.7C462.4,19.8,462.4,20.1,462.4,20.4z"/>
</g>
<g class="st3">
	<path d="M168.6,17.9c0,0.3-0.1,0.5-0.2,0.7c-0.1,0.2-0.2,0.4-0.4,0.6c-0.2,0.2-0.4,0.3-0.6,0.4c-0.2,0.1-0.5,0.1-0.7,0.1
		c-0.3,0-0.5,0-0.7-0.1c-0.2-0.1-0.4-0.2-0.6-0.4c-0.2-0.2-0.3-0.4-0.4-0.6c-0.1-0.2-0.1-0.5-0.1-0.7c0-0.3,0-0.5,0.1-0.7
		c0.1-0.2,0.2-0.4,0.4-0.6c0.2-0.2,0.4-0.3,0.6-0.4c0.2-0.1,0.5-0.1,0.7-0.1c0.3,0,0.5,0,0.7,0.1c0.2,0.1,0.4,0.2,0.6,0.4
		c0.2,0.2,0.3,0.4,0.4,0.6C168.5,17.4,168.6,17.7,168.6,17.9z M168.2,21.5v12.3h-3V21.5H168.2z"/>
	<path d="M174.7,17.9c0,0.3-0.1,0.5-0.2,0.7c-0.1,0.2-0.2,0.4-0.4,0.6c-0.2,0.2-0.4,0.3-0.6,0.4c-0.2,0.1-0.5,0.1-0.7,0.1
		c-0.3,0-0.5,0-0.7-0.1c-0.2-0.1-0.4-0.2-0.6-0.4c-0.2-0.2-0.3-0.4-0.4-0.6c-0.1-0.2-0.1-0.5-0.1-0.7c0-0.3,0-0.5,0.1-0.7
		c0.1-0.2,0.2-0.4,0.4-0.6c0.2-0.2,0.4-0.3,0.6-0.4c0.2-0.1,0.5-0.1,0.7-0.1c0.3,0,0.5,0,0.7,0.1c0.2,0.1,0.4,0.2,0.6,0.4
		c0.2,0.2,0.3,0.4,0.4,0.6C174.6,17.4,174.7,17.7,174.7,17.9z M174.3,21.5v12.3h-3V21.5H174.3z"/>
	<path d="M180.8,17.9c0,0.3-0.1,0.5-0.2,0.7c-0.1,0.2-0.2,0.4-0.4,0.6c-0.2,0.2-0.4,0.3-0.6,0.4c-0.2,0.1-0.5,0.1-0.7,0.1
		c-0.3,0-0.5,0-0.7-0.1c-0.2-0.1-0.4-0.2-0.6-0.4c-0.2-0.2-0.3-0.4-0.4-0.6c-0.1-0.2-0.1-0.5-0.1-0.7c0-0.3,0-0.5,0.1-0.7
		c0.1-0.2,0.2-0.4,0.4-0.6c0.2-0.2,0.4-0.3,0.6-0.4c0.2-0.1,0.5-0.1,0.7-0.1c0.3,0,0.5,0,0.7,0.1c0.2,0.1,0.4,0.2,0.6,0.4
		c0.2,0.2,0.3,0.4,0.4,0.6C180.7,17.4,180.8,17.7,180.8,17.9z M180.3,21.5v12.3h-3V21.5H180.3z"/>
</g>
<g class="st3">
	<path d="M102.9,17.9c0,0.3-0.1,0.5-0.2,0.7c-0.1,0.2-0.2,0.4-0.4,0.6c-0.2,0.2-0.4,0.3-0.6,0.4c-0.2,0.1-0.5,0.1-0.7,0.1
		c-0.3,0-0.5,0-0.7-0.1c-0.2-0.1-0.4-0.2-0.6-0.4c-0.2-0.2-0.3-0.4-0.4-0.6c-0.1-0.2-0.1-0.5-0.1-0.7c0-0.3,0-0.5,0.1-0.7
		c0.1-0.2,0.2-0.4,0.4-0.6c0.2-0.2,0.4-0.3,0.6-0.4c0.2-0.1,0.5-0.1,0.7-0.1c0.3,0,0.5,0,0.7,0.1c0.2,0.1,0.4,0.2,0.6,0.4
		c0.2,0.2,0.3,0.4,0.4,0.6C102.9,17.4,102.9,17.7,102.9,17.9z M102.5,21.5v12.3h-3V21.5H102.5z"/>
	<path d="M109,17.9c0,0.3-0.1,0.5-0.2,0.7c-0.1,0.2-0.2,0.4-0.4,0.6c-0.2,0.2-0.4,0.3-0.6,0.4c-0.2,0.1-0.5,0.1-0.7,0.1
		c-0.3,0-0.5,0-0.7-0.1c-0.2-0.1-0.4-0.2-0.6-0.4c-0.2-0.2-0.3-0.4-0.4-0.6c-0.1-0.2-0.1-0.5-0.1-0.7c0-0.3,0-0.5,0.1-0.7
		c0.1-0.2,0.2-0.4,0.4-0.6c0.2-0.2,0.4-0.3,0.6-0.4c0.2-0.1,0.5-0.1,0.7-0.1c0.3,0,0.5,0,0.7,0.1c0.2,0.1,0.4,0.2,0.6,0.4
		c0.2,0.2,0.3,0.4,0.4,0.6C109,17.4,109,17.7,109,17.9z M108.6,21.5v12.3h-3V21.5H108.6z"/>
</g>
<g class="st3">
	<path d="M37,33.8h-3.2V16.5H37V33.8z"/>
</g>
</svg>
